<svg id="Layer_1" data-name="Layer 1" xmlns="http://www.w3.org/2000/svg" viewBox="0 0 500 500"><defs><style>.cls-1{fill:#e57373;}.cls-2{fill:#99995c;}.cls-3{fill:#e5e55c;}.cls-4{fill:#5c6b99;}.cls-5{fill:#5c7ee5;}.cls-6{fill:#f0abab;}.cls-7{fill:none;stroke:#000;stroke-miterlimit:10;stroke-width:3px;}.cls-8{font-size:24.71px;font-family:ChalkboardSE-Regular, Chalkboard SE;}.cls-9{letter-spacing:0.01em;}.cls-10{fill:#b2b247;}.cls-11{fill:#66663d;}.cls-12{fill:#b25959;}</style></defs><path class="cls-1" d="M101.11,137.35a7.48,7.48,0,0,1,4.31-2.65,5.92,5.92,0,0,1,4.2.51,4.49,4.49,0,0,1,2.37,3.18,9.19,9.19,0,0,1-.06,2.64,69.34,69.34,0,0,1-3.22,6.78A34,34,0,0,1,104.4,154a27.65,27.65,0,0,1-5.73,5,24,24,0,0,1-7.51,3.25,29.29,29.29,0,0,1-12.27.62,29.85,29.85,0,0,1-11-4.18,33.31,33.31,0,0,1-9-8.26A37,37,0,0,1,53,138.82a27.54,27.54,0,0,1-1.3-9,46.28,46.28,0,0,1,1.46-10.66A31.57,31.57,0,0,1,57,110.32a42,42,0,0,1,6.51-7.76,75.17,75.17,0,0,1,9.34-7.37l-.13,0a56,56,0,0,1,6.54-4.06,28.14,28.14,0,0,1,6.43-2.39,16.35,16.35,0,0,1,9.3.37q4.4,1.53,9,6.64a7.11,7.11,0,0,1,.64,1.77,4.4,4.4,0,0,1-1,3.9,6.53,6.53,0,0,1-3.8,2.25,7.73,7.73,0,0,1-6-1c-1.55-1.15-2.82-2.62-3.68-3.22a3.1,3.1,0,0,0-2.55-.59,9,9,0,0,0-2.17,1c-.94.54-2,1.15-3,1.82l-1.86,1.17a48.42,48.42,0,0,0-7.78,6.21A31.67,31.67,0,0,0,67,116.72a25.52,25.52,0,0,0-2.85,9,26.1,26.1,0,0,0,1,10.43,26.56,26.56,0,0,0,3.39,7.33,22.93,22.93,0,0,0,5.38,5.75,19,19,0,0,0,6.88,3.24,16.08,16.08,0,0,0,8-.16,11.27,11.27,0,0,0,4.36-2.18,18.12,18.12,0,0,0,3.36-3.58A30,30,0,0,0,99,142.19a33.48,33.48,0,0,0,1.86-4.68Z"/><path class="cls-2" d="M139.9,145.61a5.55,5.55,0,0,1-1.18,4.7,6.54,6.54,0,0,1-3.66,2.07,6,6,0,0,1-3.91-.65,5.82,5.82,0,0,1-2.79-3.56L118.19,94.69a7.74,7.74,0,0,1-3.41-1.23,4,4,0,0,1-1.84-2.61,5.18,5.18,0,0,1,1.49-4.67,52.66,52.66,0,0,1,11.88-7.62,50.56,50.56,0,0,1,14.06-4.3A44.36,44.36,0,0,1,152.11,74a28.84,28.84,0,0,1,10.39,3.36,24.48,24.48,0,0,1,8.73,7.31,19.06,19.06,0,0,1,3.27,8.78,21.74,21.74,0,0,1-.49,7.36,26.47,26.47,0,0,1-2.84,7,32.29,32.29,0,0,1-11.54,11.62c8.87,7.08,13.18,10.7,21.58,18.07a6.54,6.54,0,0,1,1.92,3.55,4.43,4.43,0,0,1-1.24,3.69,5.82,5.82,0,0,1-3.67,1.73,8.29,8.29,0,0,1-2.62-.12,5.2,5.2,0,0,1-2.53-1.29c-.8-.73-2.36-2.15-4.68-4.13s-4.9-4.08-7.71-6.29l-7.91-6.18c-2.46-1.92-4.09-3.2-4.85-3.87a93.66,93.66,0,0,1-11.12,2.86ZM155.31,86a19.06,19.06,0,0,0-6.76-1.84,31.89,31.89,0,0,0-7.15.3,34.4,34.4,0,0,0-11.3,3.71c2,11.62,3,17.43,5,29.06,2.76-.63,5.54-1.32,8.32-2.08a35.29,35.29,0,0,0,8.16-3.35,16.19,16.19,0,0,0,4.5-3.15,24.92,24.92,0,0,0,3.49-4.29,17.65,17.65,0,0,0,2.19-4.86,12.48,12.48,0,0,0,.42-4.87,10.49,10.49,0,0,0-1.9-4.87A12.52,12.52,0,0,0,155.31,86Z"/><path class="cls-3" d="M217.72,130.75q1.32-.06,2.28-.15l2.27-.26.48,0a7.09,7.09,0,0,1,5.39,1.21,4.65,4.65,0,0,1,1.94,3.52,4.6,4.6,0,0,1-1.28,3.15,7.06,7.06,0,0,1-4.15,2.19,39.3,39.3,0,0,1-4.36.28l-4.49.2c-6.24.3-9.36.48-15.59.94a7.49,7.49,0,0,1-4.52-1.62,4.65,4.65,0,0,1-1.69-3.1,4.49,4.49,0,0,1,1.28-3.51,7.19,7.19,0,0,1,4.54-2c1.16-.13,2.22-.18,3.06-.28a28.1,28.1,0,0,1,2.94-.13q-1.53-24.59-3.08-49.18c-2.79.17-4.19.27-7,.47a8.66,8.66,0,0,1-4.94-1.58A4.54,4.54,0,0,1,189,77.65a4.25,4.25,0,0,1,1.43-3.41,8.71,8.71,0,0,1,5-2c10.86-.79,16.3-1.07,27.18-1.43a8.92,8.92,0,0,1,4.2,2.12,3.84,3.84,0,0,1,0,6A8.77,8.77,0,0,1,222.41,81c-2.74.09-4.12.15-6.86.27Q216.63,106,217.72,130.75Z"/><path class="cls-4" d="M293.39,74.25a6.31,6.31,0,0,1,2.7-3.61,6.89,6.89,0,0,1,4.1-.91,7.53,7.53,0,0,1,3.92,1.49,5.32,5.32,0,0,1,2.26,3.7c.47,9.44-2,21.52-3.06,31.83s-2.42,20.94-4,31.87a5.36,5.36,0,0,0-.19.86c0,.2,0,.37-.05.53a7,7,0,0,1-2.63,3.11,5.49,5.49,0,0,1-3.27.85,7.49,7.49,0,0,1-5-2.82l-.73-1.45q-3.58-6.9-7.55-13.29T271.54,114q-4.4-6-9.14-11.89t-9.79-11.77l-.2,19.57q-.07,6.06-.08,12.58c0,4.35.07,9.19-.09,14.21a5.48,5.48,0,0,1-2,4.41,6.33,6.33,0,0,1-3.84,1.38,6.1,6.1,0,0,1-3.84-1.33,5.6,5.6,0,0,1-2.09-4c-.36-4.77-.11-10.31-.19-15.55s-.15-10.54-.19-15.9c-.11-12.63-.16-18.94-.26-31.57a6.24,6.24,0,0,1,2.33-3.57,6.8,6.8,0,0,1,4.08-1.23,10.54,10.54,0,0,1,5,1.77c1.61,1.69,2.42,2.54,4,4.24q9.9,10.86,18.43,21.55a204.84,204.84,0,0,1,15.82,22.87q1.17-11.72,2.11-22.57t1.77-22.83Z"/><path class="cls-5" d="M375.49,114a7.22,7.22,0,0,1,3.67,2.82,4.66,4.66,0,0,1,.6,3.27,4.4,4.4,0,0,1-1.38,2.38,6.46,6.46,0,0,1-3.22,1.42c-1.34,6.65-2,10-3.36,16.63a6,6,0,0,1-2.2,3.58,29.55,29.55,0,0,1-3.56,2.5l-1.09.62a23.59,23.59,0,0,1-9.88,3.65,36.56,36.56,0,0,1-10.9-.14,33.65,33.65,0,0,1-14.76-5.77,39.09,39.09,0,0,1-9.9-10.29,39.62,39.62,0,0,1-5.44-12.51,37.06,37.06,0,0,1-1-12.41,29.22,29.22,0,0,1,1.67-7A36.8,36.8,0,0,1,324,88.66a26.52,26.52,0,0,1,7.32-5,84.11,84.11,0,0,1,15.3-4.61,42.72,42.72,0,0,1,15.66-.22,45.24,45.24,0,0,1,5.46,1.36,35.64,35.64,0,0,1,6.12,2.49,18,18,0,0,1,4.77,3.46,4.64,4.64,0,0,1,1.43,4.26,4.35,4.35,0,0,1-2.4,3,6.64,6.64,0,0,1-4.55.61,15.86,15.86,0,0,1-2.63-.78,27.4,27.4,0,0,1-2.78-1.37c-1.16-.62-2.44-1.2-3.66-1.79A13.16,13.16,0,0,0,360.53,89a20.43,20.43,0,0,0-2.15-.25,13.12,13.12,0,0,0-2.32.09q-5.13.58-10.28,1.69a33.7,33.7,0,0,0-9.52,3.58,23.18,23.18,0,0,0-7.39,6.6,22.45,22.45,0,0,0-3.8,10.71,26.74,26.74,0,0,0,.72,10.4,28,28,0,0,0,4.11,8.85,25.41,25.41,0,0,0,6.62,6.5,20.83,20.83,0,0,0,8.4,3.33A21.47,21.47,0,0,0,360.24,137c1.1-6,1.65-9,2.74-15q-4.29-.66-8.64-1.4c-2.89-.49-6-.8-8.63-1.4a8,8,0,0,1-4.39-2.53,4.26,4.26,0,0,1-1-3.41,5,5,0,0,1,2.12-3.24c1.24-.94,3-1.24,5.35-.87,5.48.85,8.21,1.31,13.68,2.28L370,113c2.61.45,4.37.78,5.28,1Z"/><path class="cls-6" d="M425.5,153.53a7.32,7.32,0,0,1,4.71,2.74,4.25,4.25,0,0,1-.94,6.23,8.37,8.37,0,0,1-3.57,1.42,91.34,91.34,0,0,1-10.95-.94,103.59,103.59,0,0,1-11.37-2.3c-5.69-1.49-11.69-3.19-15.45-5.74a5.45,5.45,0,0,1-2.4-5.94l11.13-49a5.12,5.12,0,0,1-2.3-2.37,4.46,4.46,0,0,1-.29-2.75,4.13,4.13,0,0,1,1.84-2.51,9.43,9.43,0,0,1,4.28-1.36,66.3,66.3,0,0,1,15.38,1.25q7.74,1.55,15.53,3.7c1.88.52,3.73,1,5.57,1.51s3.75.91,5.47,1.41a9.92,9.92,0,0,1,4.87,3.16c1.14,1.4,1.54,2.67,1.19,3.78a4.56,4.56,0,0,1-2.4,2.67,8,8,0,0,1-5.06.67c-1.6-.29-3.49-.89-5.38-1.4s-3.81-1-5.74-1.57q-5.16-1.44-10.17-2.64a81,81,0,0,0-10.25-1.76c-1.87,7.59-2.81,11.39-4.69,19a17.24,17.24,0,0,0,2.32.64c.74.14,1.57.33,2.47.56,3.18.81,6.41,1.58,9.67,2.3s6.65,1.38,10,2.08a7.64,7.64,0,0,1,4.93,2.82,4.43,4.43,0,0,1,.87,3.93,4.51,4.51,0,0,1-2.23,2.64,7.51,7.51,0,0,1-4.66.73c-3.49-.46-7.23-1.37-10.81-2.14s-7.19-1.63-10.81-2.55c-.88-.22-1.59-.38-2.13-.47a15.52,15.52,0,0,1-2.1-.59c-1.69,6.88-2.54,10.32-4.24,17.2,1.45.52,2.85,1,4.19,1.47s2.75.88,4.24,1.27a82.83,82.83,0,0,0,9.65,1.94,87.17,87.17,0,0,0,9.5.84Z"/><polyline class="cls-7" points="150.27 236.32 150.27 430.67 347.92 430.67 347.92 236.32"/><line class="cls-7" x1="151.83" y1="390.32" x2="349.48" y2="390.32"/><text class="cls-8" transform="translate(224.53 419.65)">f<tspan class="cls-9" x="10.67" y="0">u</tspan><tspan x="24.08" y="0">n()</tspan></text><line class="cls-7" x1="151.92" y1="349.14" x2="349.56" y2="349.14"/><text class="cls-8" transform="translate(224.61 378.47)">f<tspan class="cls-9" x="10.67" y="0">u</tspan><tspan x="24.08" y="0">n()</tspan></text><line class="cls-7" x1="152" y1="307.96" x2="349.65" y2="307.96"/><text class="cls-8" transform="translate(224.7 337.3)">f<tspan class="cls-9" x="10.67" y="0">u</tspan><tspan x="24.08" y="0">n()</tspan></text><line class="cls-7" x1="152.08" y1="266.79" x2="349.73" y2="266.79"/><text class="cls-8" transform="translate(224.78 296.12)">f<tspan class="cls-9" x="10.67" y="0">u</tspan><tspan x="24.08" y="0">n()</tspan></text><text class="cls-8" transform="translate(224.87 254.94)">f<tspan class="cls-9" x="10.67" y="0">u</tspan><tspan x="24.08" y="0">n()</tspan></text><rect class="cls-10" x="246.71" y="214.91" width="6.59" height="6.59" rx="3.29"/><rect class="cls-11" x="243.41" y="186.08" width="13.18" height="13.18" rx="6.59"/><rect class="cls-12" x="240.12" y="157.26" width="19.76" height="19.76" rx="9.88"/></svg>